<svg width="100" height="100" viewBox="0 0 100 100" fill="none" xmlns="http://www.w3.org/2000/svg">
<g clip-path="url(#clip0_195_2792)">
<path d="M48.5784 49.9976V100.001L24.7131 87.3927C17.2005 83.4237 12.5 75.6243 12.5 67.1278V44.2027C12.5 37.0471 20.3428 32.6596 26.4405 36.4039L48.5784 49.9976Z" fill="url(#paint0_linear_195_2792)"/>
<path d="M48.5788 49.9976V100.001L72.4442 87.3927C79.9568 83.4237 84.6572 75.6244 84.6572 67.1278V44.2027C84.6572 37.0471 76.8145 32.6596 70.7167 36.4039L48.5788 49.9976Z" fill="url(#paint1_linear_195_2792)"/>
<g clip-path="url(#clip1_195_2792)">
<path d="M44.8892 9.39308C45.9202 6.37584 50.0892 6.28446 51.3116 9.11895L51.415 9.39481L52.8064 13.4638C53.1253 14.3969 53.6406 15.2509 54.3175 15.968C54.9945 16.6851 55.8173 17.2486 56.7306 17.6207L57.1047 17.7603L61.1737 19.15C64.1909 20.181 64.2823 24.35 61.4495 25.5724L61.1737 25.6759L57.1047 27.0673C56.1712 27.3859 55.317 27.9011 54.5996 28.5781C53.8822 29.255 53.3183 30.078 52.9461 30.9914L52.8064 31.3638L51.4168 35.4345C50.3857 38.4518 46.2168 38.5431 44.9961 35.7104L44.8892 35.4345L43.4995 31.3655C43.1808 30.4321 42.6657 29.5778 41.9887 28.8604C41.3118 28.143 40.4888 27.5792 39.5754 27.2069L39.2029 27.0673L35.134 25.6776C32.115 24.6466 32.0236 20.4776 34.8581 19.2569L35.134 19.15L39.2029 17.7603C40.1361 17.4415 40.99 16.9262 41.7071 16.2493C42.4242 15.5723 42.9878 14.7495 43.3598 13.8362L43.4995 13.4638L44.8892 9.39308ZM61.9461 3.44824C62.2687 3.44824 62.5847 3.53872 62.8584 3.7094C63.1321 3.88008 63.3525 4.12411 63.4944 4.41376L63.5771 4.61549L64.1806 6.38446L65.9513 6.98791C66.2745 7.09773 66.5579 7.30104 66.7655 7.57207C66.973 7.84311 67.0955 8.16966 67.1173 8.51036C67.1391 8.85105 67.0592 9.19055 66.8879 9.48582C66.7165 9.78109 66.4614 10.0188 66.1547 10.1689L65.9513 10.2517L64.1823 10.8552L63.5789 12.6258C63.4688 12.949 63.2654 13.2322 62.9942 13.4396C62.7231 13.647 62.3965 13.7693 62.0558 13.7909C61.7151 13.8125 61.3757 13.7325 61.0805 13.561C60.7854 13.3895 60.5478 13.1342 60.3978 12.8276L60.3151 12.6258L59.7116 10.8569L57.9409 10.2534C57.6177 10.1436 57.3343 9.9403 57.1267 9.66926C56.9192 9.39823 56.7967 9.07167 56.7749 8.73098C56.7531 8.39028 56.833 8.05079 57.0043 7.75552C57.1757 7.46025 57.4308 7.22249 57.7375 7.07239L57.9409 6.98963L59.7099 6.38618L60.3133 4.61549C60.4296 4.27484 60.6496 3.97912 60.9424 3.76979C61.2352 3.56046 61.5862 3.44803 61.9461 3.44824Z" fill="url(#paint2_linear_195_2792)"/>
</g>
</g>
<defs>
<linearGradient id="paint0_linear_195_2792" x1="14.5204" y1="28.688" x2="42.6294" y2="101.59" gradientUnits="userSpaceOnUse">
<stop stop-color="#9A5DE9"/>
<stop offset="1" stop-color="#5813B3"/>
</linearGradient>
<linearGradient id="paint1_linear_195_2792" x1="82.6368" y1="28.688" x2="64.8935" y2="107.052" gradientUnits="userSpaceOnUse">
<stop stop-color="#9140FA"/>
<stop offset="0.4375" stop-color="#8336E8"/>
<stop offset="1" stop-color="#B284ED"/>
</linearGradient>
<linearGradient id="paint2_linear_195_2792" x1="34.7209" y1="3.84977" x2="42.1239" y2="42.2519" gradientUnits="userSpaceOnUse">
<stop stop-color="#9869D5"/>
<stop offset="1" stop-color="#6125B1"/>
</linearGradient>
<clipPath id="clip0_195_2792">
<rect width="100" height="100" fill="white"/>
</clipPath>
<clipPath id="clip1_195_2792">
<rect width="41.3794" height="41.3794" fill="white" transform="translate(28.0015)"/>
</clipPath>
</defs>
</svg>
